<svg version="1.1" id="Layer_1" xmlns="http://www.w3.org/2000/svg" x="0px" y="0px"
	 viewBox="0 0 233 87" style="enable-background:new 0 0 233 87;" xml:space="preserve">
<style type="text/css">
	.st0{fill:#FF5252;}
	.st1{fill:#FFFFFF;}

@keyframes blink1 {
    from   { fill: rgb(255, 82, 82);transition: 50s; }
    to  { fill: rgb(255, 255, 255);transition: 50s; }
}

.st1, .st2	{
    animation: blink1 4s ease-out infinite;
    transition: 6s;
}
</style>
<rect class="st0" width="233" height="87"/>
<g>
	<g class="black">
		<path class="st1" d="M85.8,42.6v3.9c0,0.1-0.2,0.3-0.3,0.3h-9.7V57h0h-3.1h-1.3c-0.2,0-0.3-0.2-0.3-0.3V32.5
			c0-0.1,0.2-0.3,0.3-0.3h11.4v4.5h-7v5.6h9.7C85.7,42.3,85.8,42.4,85.8,42.6z"/>
		<path class="st1" d="M99.8,57c-8,0-12-6.2-12-12.4c0-6.2,3.9-12.4,12-12.4c7.9,0,11.9,6.2,11.9,12.4C111.7,50.8,107.7,57,99.8,57z
			 M99.8,36.6c-4.9,0-7.3,4-7.3,8.1c0,4,2.4,8,7.3,8c4.8,0,7.3-4,7.3-8C107,40.6,104.6,36.6,99.8,36.6z M99.7,47
			c-1.3,0-2.3-1.1-2.3-2.3c0-1.3,1-2.4,2.3-2.4c1.3,0,2.3,1.1,2.3,2.4C102.1,45.9,101,47,99.7,47z"/>
		<path class="st1" d="M129.5,49.8c0,4.7-3.7,7.2-7.7,7.2c0,0,0,0,0,0v-4.5c0,0,0,0,0,0c1.6,0,3.1-1.1,3.1-2.8c0-1.8-1.7-2.9-3.1-3
			c-0.2,0-1.9,0-3.7-0.8c-2.6-1.2-4-3.4-4-6.3c0-4.7,3.8-7.5,7.7-7.5c4.2,0,7.5,2.9,7.6,7.1c0,0.1-0.1,0.2-0.3,0.2h-3.9
			c-0.2,0-0.3-0.2-0.3-0.2c-0.1-1.8-1.4-2.6-3-2.6c-1.7,0-3.1,1-3.1,3c0,1.8,1.5,2.7,3.1,2.7c0.2,0,1.9,0,3.7,0.8
			C128.1,44.4,129.5,46.9,129.5,49.8z"/>
		<path class="st1" d="M146.9,49.8c0,4.7-3.7,7.2-7.7,7.2c0,0,0,0,0,0v-4.5c0,0,0,0,0,0c1.6,0,3.1-1.1,3.1-2.8c0-1.8-1.7-2.9-3.1-3
			c-0.2,0-1.9,0-3.7-0.8c-2.6-1.2-4-3.4-4-6.3c0-4.7,3.8-7.5,7.7-7.5c4.2,0,7.5,2.9,7.6,7.1c0,0.1-0.1,0.2-0.3,0.2h-3.9
			c-0.2,0-0.3-0.2-0.3-0.2c-0.1-1.8-1.4-2.6-3-2.6c-1.7,0-3.1,1-3.1,3c0,1.8,1.5,2.7,3.1,2.7c0.2,0,1.9,0,3.7,0.8
			C145.5,44.4,146.9,46.9,146.9,49.8z"/>
		<path class="st1" d="M159.4,53v3.7c0,0.1-0.1,0.3-0.3,0.3h-9.8c-0.2,0-0.3-0.2-0.3-0.3V53c0-0.2,0.2-0.3,0.3-0.3h2.5V44v-7.5v-4.2
			h4.7v4.2V44v8.8h2.5C159.3,52.8,159.4,52.9,159.4,53z"/>
		<path class="st1" d="M161.1,47.6V32.5c0-0.1,0.2-0.3,0.3-0.3h4.1c0.2,0,0.3,0.2,0.3,0.3v15.2H161.1z M174.9,52.7v4
			c0,0.1-0.1,0.3-0.3,0.3h-13.1c-0.2,0-0.3-0.2-0.3-0.3v-4.3h4.7h8.7C174.8,52.4,174.9,52.5,174.9,52.7z"/>
	</g>
</g>
</svg>
